<svg width="49" height="13" viewBox="0 0 49 13" fill="none" xmlns="http://www.w3.org/2000/svg">
<g clip-path="url(#clip0_42_969)">
<path d="M46.3787 6.189L49 12.9877C48.2275 12.8796 47.4554 12.7442 46.6692 12.6222L45.1926 8.8657L43.6754 12.3121C42.9307 12.1902 42.1992 12.1496 41.4545 12.0548L44.1168 6.10817L41.7021 0.0131226H43.9371L45.2888 3.41852L46.7376 0.0131226H48.9996L46.3787 6.189ZM39.9372 0.0131226H37.9093V11.7984C38.5714 11.839 39.2609 11.8658 39.9372 11.9467V0.0131226ZM36.1572 11.663C34.3089 11.5415 32.4601 11.4338 30.5703 11.3927V0.0131748H32.6394V9.47374C33.8259 9.50057 35.0121 9.59487 36.1572 9.64891V11.663ZM28.3626 4.62211V6.64916H25.5348V11.2577H23.4936V0.0131226H29.2875V2.04018H25.5352V4.62216H28.3631L28.3626 4.62211ZM20.0167 2.04018V11.3659C19.3268 11.3659 18.6236 11.3659 17.9473 11.3927V2.04018H15.809V0.0131226H22.1683V2.04018H20.0167ZM13.5744 6.75688C12.6641 6.75688 11.5879 6.75688 10.8154 6.79797V9.81151C12.0293 9.73021 13.2433 9.63591 14.4709 9.59529V11.5415L8.74634 11.9878V0.0131226H14.4705V2.04018H10.8153V4.77045C11.6157 4.77045 12.8433 4.72983 13.5743 4.72983V6.7573L13.5744 6.75688ZM2.11012 5.62159V12.7035C1.36585 12.7848 0.703231 12.8796 0 12.9877V0.0131226H1.97283L4.66259 7.37927V0.0131226H6.73205V12.1496C6.001 12.2715 5.25587 12.3121 4.46966 12.4199L2.11012 5.62159Z" fill="white"/>
</g>
<defs>
<clipPath id="clip0_42_969">
<rect width="49" height="13" fill="white"/>
</clipPath>
</defs>
</svg>
