<svg width="0" height="0" class="hidden">
  <symbol fill="none" xmlns="http://www.w3.org/2000/svg" viewBox="0 0 100 30" id="amazon">
    <g clip-path="url(#clip0_42:794)">
      <path fill-rule="evenodd" clip-rule="evenodd" d="M62.038 23.461C56.2269 27.725 47.8039 30.0001 40.552 30.0001C30.3835 30.0001 21.2293 26.256 14.3037 20.0289C13.7596 19.5393 14.2472 18.8719 14.9001 19.2533C22.3741 23.5823 31.6154 26.1867 41.1614 26.1867C47.5993 26.1867 54.6816 24.8607 61.1936 22.109C62.1773 21.693 63 22.7503 62.038 23.461Z" fill="#FF9900"></path>
      <path fill-rule="evenodd" clip-rule="evenodd" d="M64.4541 20.7093C63.7141 19.7646 59.544 20.2629 57.6723 20.4839C57.102 20.5533 57.015 20.0593 57.5286 19.7039C60.8499 17.3769 66.2997 18.0486 66.9353 18.8286C67.5708 19.6129 66.7699 25.0513 63.6488 27.647C63.17 28.0457 62.7129 27.8334 62.9262 27.3047C63.627 25.5627 65.1985 21.6583 64.4541 20.7093Z" fill="#FF9900"></path>
      <path fill-rule="evenodd" clip-rule="evenodd" d="M57.8028 3.27592V1.0139C57.8028 0.671563 58.064 0.441895 58.3774 0.441895H68.5502C68.8767 0.441895 69.1379 0.675897 69.1379 1.0139V2.95092C69.1335 3.27592 68.8593 3.70059 68.3717 4.37227L63.1003 11.8647C65.0592 11.817 67.1268 12.1073 68.9028 13.104C69.3033 13.3294 69.4121 13.6587 69.4426 13.9837V16.3974C69.4426 16.7267 69.0769 17.1124 68.6939 16.9131C65.5641 15.2794 61.407 15.1017 57.9465 16.9304C57.5939 17.1211 57.2239 16.7397 57.2239 16.4104V14.118C57.2239 13.7497 57.2282 13.1214 57.5982 12.5624L63.7054 3.8436H58.3905C58.064 3.8436 57.8028 3.61393 57.8028 3.27592Z" fill="black"></path>
      <path fill-rule="evenodd" clip-rule="evenodd" d="M20.6939 17.3898H17.5989C17.3029 17.3681 17.0679 17.1471 17.0461 16.8654V1.05296C17.0461 0.73662 17.3116 0.485282 17.6425 0.485282H20.5285C20.8288 0.498273 21.0682 0.72795 21.09 1.01395V3.08097H21.1466C21.8996 1.08329 23.3143 0.151611 25.2209 0.151611C27.158 0.151611 28.3681 1.08329 29.2387 3.08097C29.9874 1.08329 31.6894 0.151611 33.5133 0.151611C34.8104 0.151611 36.2295 0.684616 37.0957 1.88063C38.0751 3.21097 37.8749 5.14366 37.8749 6.83801L37.8706 16.8178C37.8706 17.1341 37.605 17.3898 37.2742 17.3898H34.1836C33.8746 17.3681 33.6265 17.1211 33.6265 16.8178V8.43702C33.6265 7.76968 33.6874 6.10567 33.5394 5.47299C33.3087 4.41132 32.6166 4.11231 31.7199 4.11231C30.9712 4.11231 30.1876 4.61065 29.8699 5.408C29.5521 6.20534 29.5826 7.54001 29.5826 8.43702V16.8178C29.5826 17.1341 29.317 17.3898 28.9862 17.3898H25.8956C25.5822 17.3681 25.3385 17.1211 25.3385 16.8178L25.3341 8.43702C25.3341 6.67334 25.6258 4.07765 23.4275 4.07765C21.2032 4.07765 21.2902 6.60834 21.2902 8.43702V16.8178C21.2902 17.1341 21.0247 17.3898 20.6939 17.3898" fill="black"></path>
      <path fill-rule="evenodd" clip-rule="evenodd" d="M77.8957 0.151611C82.488 0.151611 84.9735 4.07765 84.9735 9.0697C84.9735 13.8928 82.2268 17.7191 77.8957 17.7191C73.386 17.7191 70.931 13.7931 70.931 8.9007C70.931 3.97798 73.4165 0.151611 77.8957 0.151611ZM77.9218 3.37998C75.6408 3.37998 75.4972 6.47401 75.4972 8.40236C75.4972 10.335 75.4667 14.4604 77.8957 14.4604C80.2941 14.4604 80.4073 11.1324 80.4073 9.10437C80.4073 7.76969 80.3507 6.17501 79.9459 4.90966C79.5977 3.80898 78.9056 3.37998 77.9218 3.37998Z" fill="black"></path>
      <path fill-rule="evenodd" clip-rule="evenodd" d="M90.9286 17.3898H87.8467C87.5377 17.3681 87.2896 17.1211 87.2896 16.8178L87.2852 1.00095C87.3113 0.710616 87.5682 0.485282 87.8816 0.485282H90.7502C91.02 0.498273 91.242 0.680284 91.303 0.927286V3.34531H91.3596C92.2258 1.18295 93.4403 0.151611 95.5776 0.151611C96.9661 0.151611 98.3199 0.64995 99.1905 2.01496C100 3.28031 100 5.40799 100 6.93767V16.8914C99.9653 17.1688 99.7085 17.3898 99.4038 17.3898H96.3001C96.0172 17.3681 95.7821 17.1601 95.7517 16.8914V8.30269C95.7517 6.57367 95.9519 4.04298 93.8146 4.04298C93.0616 4.04298 92.3694 4.54565 92.0256 5.30833C91.5903 6.27467 91.5337 7.23668 91.5337 8.30269V16.8178C91.5293 17.1341 91.2594 17.3898 90.9286 17.3898" fill="black"></path>
      <path fill-rule="evenodd" clip-rule="evenodd" d="M49.693 9.83701C49.693 11.0374 49.7235 12.0384 49.1141 13.1044C48.6222 13.9711 47.8387 14.5041 46.9724 14.5041C45.7841 14.5041 45.0876 13.6027 45.0876 12.2724C45.0876 9.64635 47.4513 9.16967 49.693 9.16967V9.83701ZM52.8141 17.3468C52.6095 17.5288 52.3135 17.5418 52.0828 17.4204C51.0555 16.5711 50.8683 16.1767 50.3068 15.3664C48.6091 17.0911 47.4034 17.6068 45.2051 17.6068C42.5977 17.6068 40.5736 16.0077 40.5736 12.8054C40.5736 10.305 41.9317 8.602 43.8731 7.76999C45.5534 7.03332 47.8996 6.90332 49.693 6.69965V6.30098C49.693 5.56863 49.7496 4.70196 49.3143 4.06929C48.94 3.50161 48.2174 3.26761 47.5775 3.26761C46.3978 3.26761 45.3488 3.86995 45.092 5.11796C45.0397 5.3953 44.8351 5.6683 44.5522 5.6813L41.553 5.36063C41.3005 5.3043 41.0176 5.10063 41.0916 4.71496C41.7794 1.09226 45.0702 0.000244141 48.0128 0.000244141C49.5189 0.000244141 51.4864 0.398916 52.6748 1.53426C54.1809 2.93394 54.0373 4.80163 54.0373 6.83398V11.6354C54.0373 13.0784 54.638 13.7111 55.2039 14.4911C55.3997 14.7684 55.4433 15.1021 55.1908 15.3101C54.5596 15.8344 53.4365 16.8094 52.8184 17.3554L52.8141 17.3467" fill="black"></path>
      <path fill-rule="evenodd" clip-rule="evenodd" d="M9.1194 9.83701C9.1194 11.0374 9.14987 12.0384 8.54046 13.1044C8.04858 13.9711 7.2694 14.5041 6.39881 14.5041C5.21046 14.5041 4.51835 13.6027 4.51835 12.2724C4.51835 9.64635 6.88199 9.16967 9.1194 9.16967V9.83701ZM12.2405 17.3468C12.0359 17.5288 11.7399 17.5418 11.5092 17.4204C10.4819 16.5711 10.299 16.1767 9.73316 15.3664C8.03552 17.0911 6.83411 17.6068 4.63152 17.6068C2.02847 17.6068 0 16.0077 0 12.8054C0 10.305 1.36247 8.602 3.29952 7.76999C4.97976 7.03332 7.32599 6.90332 9.1194 6.69965V6.30098C9.1194 5.56863 9.17599 4.70196 8.74505 4.06929C8.36634 3.50161 7.64376 3.26761 7.00823 3.26761C5.82858 3.26761 4.77517 3.86995 4.51835 5.11796C4.46611 5.3953 4.26152 5.6683 3.98294 5.6813L0.979411 5.36063C0.72694 5.3043 0.448352 5.10063 0.517999 4.71496C1.21012 1.09226 4.49658 0.000244141 7.43917 0.000244141C8.94528 0.000244141 10.9128 0.398916 12.1012 1.53426C13.6073 2.93394 13.4636 4.80163 13.4636 6.83398V11.6354C13.4636 13.0784 14.0643 13.7111 14.6302 14.4911C14.8305 14.7684 14.874 15.1021 14.6215 15.3101C13.9903 15.8344 12.8673 16.8094 12.2492 17.3554L12.2405 17.3467" fill="black"></path>
    </g>
    <defs>
      <clipPath id="clip0_42:794">
        <rect width="100" height="30" fill="white"></rect>
      </clipPath>
    </defs>
  </symbol>
  <symbol fill="none" xmlns="http://www.w3.org/2000/svg" viewBox="0 0 98 31" id="google">
    <g clip-path="url(#clip0_42:824)">
      <path d="M12.0691 0.00341797H12.9406C15.9661 0.0671599 18.9423 1.24639 21.0798 3.33393C20.2906 4.11477 19.4849 4.86374 18.7121 5.64458C17.5117 4.59284 16.0647 3.78013 14.4862 3.49329C12.1513 3.01522 9.63555 3.44548 7.67883 4.73626C5.54125 6.09077 4.09427 8.38548 3.78185 10.8395C3.43655 13.2617 4.1436 15.8114 5.77145 17.6918C7.33353 19.5244 9.71776 20.6717 12.1842 20.7514C14.4862 20.8789 16.8869 20.1937 18.5641 18.632C19.8795 17.5325 20.4879 15.8592 20.6852 14.2338C17.9557 14.2338 15.2262 14.2497 12.4966 14.2338V10.9511H23.9902C24.5822 14.4728 23.7272 18.4408 20.9647 20.9586C19.1231 22.7434 16.5745 23.7951 13.9765 24.0023C11.4607 24.2413 8.86273 23.7792 6.62649 22.5999C3.94628 21.2136 1.8087 18.871 0.756351 16.1142C-0.230226 13.5805 -0.246669 10.7121 0.674136 8.16239C1.51273 5.83581 3.12414 3.78013 5.19595 2.34593C7.18555 0.927676 9.60266 0.146837 12.0691 0.00341797Z" fill="#3780FF"></path>
      <path d="M78.0054 0.831543H81.5242V23.5874C80.3567 23.5874 79.1728 23.6034 78.0054 23.5715C78.0218 16.0021 78.0054 8.41683 78.0054 0.831543Z" fill="#38B137"></path>
      <path d="M31.8169 8.71948C33.9873 8.3211 36.3387 8.76729 38.131 10.0262C39.7588 11.1417 40.8934 12.8946 41.2387 14.8068C41.6827 17.0219 41.1236 19.4441 39.6437 21.197C38.0488 23.157 35.4343 24.2088 32.8857 24.0494C30.5508 23.9219 28.2816 22.7905 26.9004 20.942C25.3383 18.9023 24.9602 16.0976 25.8152 13.7073C26.6702 11.1417 29.0873 9.18161 31.8169 8.71948ZM32.3102 11.7472C31.4222 11.9703 30.6001 12.4643 30.0081 13.1655C28.4132 15.014 28.5118 18.0258 30.2712 19.7468C31.2743 20.7348 32.787 21.197 34.1847 20.9261C35.4837 20.703 36.6182 19.8584 37.2431 18.7429C38.3283 16.8466 38.0159 14.2332 36.3551 12.7512C35.2863 11.795 33.7243 11.3966 32.3102 11.7472Z" fill="#FA3913"></path>
      <path d="M49.2466 8.71944C51.7295 8.25731 54.4426 8.9266 56.3007 10.6158C59.3262 13.2451 59.655 18.1692 57.0735 21.1969C55.5114 23.1092 52.9792 24.1609 50.4798 24.0494C48.0956 23.9856 45.7443 22.8383 44.3302 20.942C42.7352 18.8544 42.3899 15.986 43.2943 13.5479C44.1986 11.062 46.5664 9.16563 49.2466 8.71944ZM49.7399 11.7472C48.852 11.9703 48.0298 12.4643 47.4379 13.1495C45.8594 14.9661 45.9251 17.9301 47.6188 19.6671C48.6218 20.7029 50.1839 21.2129 51.6309 20.926C52.9134 20.687 54.0644 19.8583 54.6893 18.7429C55.758 16.8306 55.4456 14.2172 53.7684 12.7352C52.6997 11.7791 51.1376 11.3966 49.7399 11.7472Z" fill="#FCBD06"></path>
      <path d="M64.0288 9.64346C65.9197 8.4961 68.4355 8.17739 70.4744 9.16539C71.1157 9.4363 71.6419 9.89843 72.1516 10.3606C72.168 9.9303 72.1516 9.4841 72.168 9.03791C73.2697 9.05385 74.3714 9.03791 75.4895 9.05385V23.109C75.4731 25.2284 74.914 27.4753 73.3355 29.021C71.609 30.7261 68.9617 31.252 66.5774 30.9014C64.0288 30.5349 61.809 28.7342 60.8224 26.4554C61.809 25.9933 62.8449 25.6268 63.8644 25.1965C64.4399 26.5032 65.6073 27.6187 67.0707 27.8737C68.5342 28.1286 70.2278 27.7781 71.1815 26.5988C72.2009 25.3877 72.2009 23.7304 72.1516 22.2484C71.3952 22.9655 70.5238 23.603 69.4714 23.842C67.1858 24.4635 64.6701 23.6986 62.9107 22.2006C61.1348 20.7027 60.0825 18.392 60.1811 16.0973C60.2305 13.4999 61.7432 10.998 64.0288 9.64346ZM67.4325 11.6832C66.4295 11.8426 65.4922 12.3844 64.8509 13.1333C63.3053 14.9181 63.3053 17.7706 64.8674 19.5235C65.7553 20.5593 67.1858 21.133 68.567 20.9895C69.866 20.8621 71.0664 20.0653 71.7076 18.9657C72.7929 17.1013 72.612 14.5675 71.1486 12.9421C70.2442 11.9382 68.7972 11.4442 67.4325 11.6832Z" fill="#3780FF"></path>
      <path d="M85.7501 10.4561C87.7233 8.67133 90.7652 8.06578 93.2974 9.00598C95.6981 9.88243 97.2273 12.0975 98.0001 14.3762C94.432 15.8104 90.8803 17.2287 87.3122 18.6629C87.8055 19.5712 88.5619 20.3998 89.5813 20.7345C91.0119 21.2285 92.7219 21.0532 93.9223 20.1289C94.3991 19.7784 94.7773 19.3162 95.1391 18.87C96.0434 19.4596 96.9478 20.0333 97.8521 20.6229C96.5696 22.4874 94.4156 23.7941 92.0971 24.0013C89.532 24.304 86.8025 23.3479 85.1417 21.4038C82.4122 18.3442 82.6753 13.2129 85.7501 10.4561ZM87.5095 13.4042C86.9504 14.185 86.7202 15.1411 86.7367 16.0813C89.1209 15.1252 91.5052 14.1691 93.8894 13.197C93.4948 12.3046 92.5411 11.7628 91.5709 11.6194C90.0088 11.3485 88.381 12.1612 87.5095 13.4042Z" fill="#FA3913"></path>
    </g>
    <defs>
      <clipPath id="clip0_42:824">
        <rect width="98" height="31" fill="white"></rect>
      </clipPath>
    </defs>
  </symbol>
  <symbol fill="none" xmlns="http://www.w3.org/2000/svg" viewBox="0 0 32 32" id="menu">
    <path d="M4.00003 5.99989C3.82335 5.99739 3.64793 6.03003 3.48397 6.09592C3.32001 6.1618 3.17079 6.25962 3.04496 6.38368C2.91913 6.50774 2.81922 6.65557 2.75102 6.81857C2.68282 6.98158 2.64771 7.15652 2.64771 7.33322C2.64771 7.50992 2.68282 7.68486 2.75102 7.84787C2.81922 8.01088 2.91913 8.15871 3.04496 8.28277C3.17079 8.40683 3.32001 8.50464 3.48397 8.57053C3.64793 8.63641 3.82335 8.66905 4.00003 8.66656H28C28.1767 8.66905 28.3521 8.63641 28.5161 8.57053C28.68 8.50464 28.8293 8.40683 28.9551 8.28277C29.0809 8.15871 29.1808 8.01088 29.249 7.84787C29.3172 7.68486 29.3524 7.50992 29.3524 7.33322C29.3524 7.15652 29.3172 6.98158 29.249 6.81857C29.1808 6.65557 29.0809 6.50774 28.9551 6.38368C28.8293 6.25962 28.68 6.1618 28.5161 6.09592C28.3521 6.03003 28.1767 5.99739 28 5.99989H4.00003ZM4.00003 14.6666C3.82335 14.6641 3.64793 14.6967 3.48397 14.7626C3.32001 14.8285 3.17079 14.9263 3.04496 15.0503C2.91913 15.1744 2.81922 15.3222 2.75102 15.4852C2.68282 15.6483 2.64771 15.8232 2.64771 15.9999C2.64771 16.1766 2.68282 16.3515 2.75102 16.5145C2.81922 16.6775 2.91913 16.8254 3.04496 16.9494C3.17079 17.0735 3.32001 17.1713 3.48397 17.2372C3.64793 17.3031 3.82335 17.3357 4.00003 17.3332H28C28.1767 17.3357 28.3521 17.3031 28.5161 17.2372C28.68 17.1713 28.8293 17.0735 28.9551 16.9494C29.0809 16.8254 29.1808 16.6775 29.249 16.5145C29.3172 16.3515 29.3524 16.1766 29.3524 15.9999C29.3524 15.8232 29.3172 15.6483 29.249 15.4852C29.1808 15.3222 29.0809 15.1744 28.9551 15.0503C28.8293 14.9263 28.68 14.8285 28.5161 14.7626C28.3521 14.6967 28.1767 14.6641 28 14.6666H4.00003ZM4.00003 23.3332C3.82335 23.3307 3.64793 23.3634 3.48397 23.4293C3.32001 23.4951 3.17079 23.593 3.04496 23.717C2.91913 23.8411 2.81922 23.9889 2.75102 24.1519C2.68282 24.3149 2.64771 24.4899 2.64771 24.6666C2.64771 24.8433 2.68282 25.0182 2.75102 25.1812C2.81922 25.3442 2.91913 25.492 3.04496 25.6161C3.17079 25.7402 3.32001 25.838 3.48397 25.9039C3.64793 25.9697 3.82335 26.0024 4.00003 25.9999H28C28.1767 26.0024 28.3521 25.9697 28.5161 25.9039C28.68 25.838 28.8293 25.7402 28.9551 25.6161C29.0809 25.492 29.1808 25.3442 29.249 25.1812C29.3172 25.0182 29.3524 24.8433 29.3524 24.6666C29.3524 24.4899 29.3172 24.3149 29.249 24.1519C29.1808 23.9889 29.0809 23.8411 28.9551 23.717C28.8293 23.593 28.68 23.4951 28.5161 23.4293C28.3521 23.3634 28.1767 23.3307 28 23.3332H4.00003Z" fill="white"></path>
  </symbol>
  <symbol fill="none" xmlns="http://www.w3.org/2000/svg" viewBox="0 0 136 29" id="microsoft">
    <g clip-path="url(#clip0_42:816)">
      <path d="M136 13.1198V10.7321H133.03V7.02014L132.93 7.05088L130.14 7.90298L130.085 7.91966V10.7322H125.682V9.16538C125.682 8.43581 125.845 7.8775 126.167 7.50517C126.487 7.1373 126.945 6.95027 127.528 6.95027C127.948 6.95027 128.382 7.04891 128.819 7.24342L128.929 7.29227V4.77772L128.877 4.75881C128.469 4.6125 127.915 4.53882 127.227 4.53882C126.361 4.53882 125.574 4.72702 124.887 5.10002C124.201 5.47354 123.66 6.00676 123.282 6.68471C122.905 7.36188 122.713 8.14398 122.713 9.00949V10.7321H120.645V13.1198H122.713V23.1786H125.682V13.1198H130.085V19.512C130.085 22.1446 131.329 23.4787 133.782 23.4787C134.185 23.4787 134.61 23.4316 135.043 23.3393C135.484 23.2444 135.784 23.1497 135.961 23.0486L136 23.0255V20.6158L135.879 20.6955C135.718 20.8027 135.518 20.8902 135.282 20.9554C135.046 21.0217 134.849 21.0549 134.696 21.0549C134.121 21.0549 133.696 20.9004 133.432 20.5953C133.165 20.2874 133.03 19.7491 133.03 18.996V13.1198H136ZM114.015 21.0553C112.937 21.0553 112.088 20.6986 111.489 19.996C110.886 19.2898 110.581 18.283 110.581 17.0038C110.581 15.684 110.886 14.651 111.489 13.9323C112.088 13.2184 112.93 12.856 113.991 12.856C115.02 12.856 115.84 13.2021 116.427 13.8852C117.017 14.5718 117.316 15.5965 117.316 16.9317C117.316 18.2832 117.034 19.3214 116.479 20.0159C115.928 20.7052 115.099 21.0553 114.015 21.0553ZM114.147 10.4322C112.091 10.4322 110.458 11.0336 109.294 12.2197C108.13 13.406 107.54 15.0475 107.54 17.0992C107.54 19.048 108.116 20.6155 109.252 21.7575C110.388 22.8998 111.934 23.4785 113.846 23.4785C115.839 23.4785 117.439 22.8687 118.603 21.6662C119.767 20.465 120.356 18.8389 120.356 16.8351C120.356 14.8559 119.803 13.2767 118.712 12.1424C117.62 11.0075 116.084 10.4322 114.147 10.4322ZM102.753 10.4322C101.355 10.4322 100.198 10.7893 99.3144 11.4934C98.4253 12.2017 97.9744 13.1307 97.9744 14.2548C97.9744 14.8391 98.0717 15.3581 98.2633 15.7984C98.456 16.24 98.7542 16.6289 99.1505 16.9553C99.5437 17.279 100.151 17.6182 100.955 17.9632C101.631 18.2409 102.136 18.4759 102.456 18.6611C102.769 18.8426 102.991 19.025 103.117 19.2027C103.239 19.3766 103.301 19.6146 103.301 19.9083C103.301 20.7445 102.673 21.1513 101.383 21.1513C100.904 21.1513 100.358 21.0515 99.7595 20.8548C99.1655 20.661 98.605 20.3773 98.0974 20.0135L97.9741 19.9252V22.7787L98.0193 22.7997C98.4394 22.9933 98.9691 23.1566 99.5933 23.285C100.216 23.4136 100.783 23.479 101.274 23.479C102.792 23.479 104.014 23.1202 104.906 22.4119C105.803 21.6988 106.258 20.7479 106.258 19.5849C106.258 18.7459 106.013 18.0265 105.53 17.4462C105.051 16.8707 104.219 16.3424 103.059 15.8753C102.135 15.505 101.543 15.1975 101.298 14.9615C101.063 14.7335 100.943 14.4111 100.943 14.0027C100.943 13.6408 101.091 13.3508 101.394 13.116C101.699 12.88 102.124 12.7599 102.657 12.7599C103.152 12.7599 103.658 12.8379 104.161 12.9908C104.664 13.1437 105.106 13.3484 105.475 13.5989L105.596 13.6816V10.9748L105.55 10.9548C105.209 10.8092 104.761 10.6845 104.216 10.5834C103.673 10.4829 103.181 10.4322 102.753 10.4322ZM90.2345 21.0553C89.1572 21.0553 88.3073 20.6986 87.7087 19.996C87.1062 19.2898 86.8015 18.2832 86.8015 17.0038C86.8015 15.684 87.1065 14.651 87.7094 13.9323C88.308 13.2184 89.1493 12.856 90.2107 12.856C91.2398 12.856 92.0593 13.2021 92.6464 13.8852C93.2365 14.5718 93.5358 15.5965 93.5358 16.9317C93.5358 18.2832 93.2541 19.3214 92.6989 20.0159C92.1475 20.7052 91.3189 21.0553 90.2345 21.0553ZM90.3669 10.4322C88.3105 10.4322 86.6774 11.0336 85.5137 12.2197C84.3502 13.406 83.7599 15.0475 83.7599 17.0992C83.7599 19.0488 84.3362 20.6155 85.472 21.7575C86.6079 22.8998 88.1536 23.4785 90.0661 23.4785C92.0587 23.4785 93.6596 22.8687 94.8233 21.6662C95.9867 20.465 96.5765 18.8389 96.5765 16.8351C96.5765 14.8559 96.0232 13.2767 94.9314 12.1424C93.839 11.0075 92.3032 10.4322 90.3669 10.4322ZM79.2532 12.8876V10.7321H76.3204V23.1784H79.2532V16.8116C79.2532 15.729 79.4991 14.8396 79.9843 14.1678C80.4633 13.5041 81.1016 13.1677 81.881 13.1677C82.1451 13.1677 82.4417 13.2112 82.7628 13.2972C83.0807 13.3827 83.3109 13.4756 83.4467 13.5733L83.5699 13.6625V10.7108L83.5224 10.6905C83.2493 10.5746 82.8629 10.5162 82.3741 10.5162C81.6371 10.5162 80.9775 10.7526 80.4126 11.218C79.9168 11.6271 79.5584 12.1881 79.2844 12.8876H79.2532ZM71.0684 10.4322C69.723 10.4322 68.5229 10.7203 67.5021 11.288C66.4792 11.8571 65.6881 12.6696 65.1499 13.7026C64.6141 14.7332 64.342 15.9371 64.342 17.2796C64.342 18.4555 64.6058 19.5347 65.1272 20.4859C65.6488 21.4386 66.3871 22.1839 67.3217 22.7008C68.255 23.2171 69.3337 23.4789 70.528 23.4789C71.9217 23.4789 73.1117 23.2007 74.0658 22.6521L74.1043 22.6301V19.9478L73.981 20.0376C73.5489 20.3519 73.0659 20.6028 72.5462 20.7835C72.0279 20.9641 71.5553 21.0553 71.1409 21.0553C69.9902 21.0553 69.0663 20.6959 68.3958 19.9872C67.7238 19.2776 67.383 18.2811 67.383 17.0273C67.383 15.7655 67.7384 14.7435 68.4387 13.9893C69.1369 13.2374 70.0624 12.856 71.1893 12.856C72.1533 12.856 73.0926 13.1819 73.9813 13.8254L74.1043 13.9146V11.0884L74.0646 11.0661C73.7301 10.8792 73.274 10.7249 72.7078 10.6078C72.1439 10.4911 71.5924 10.4322 71.0684 10.4322ZM62.3222 10.7322H59.3894V23.1784H62.3222V10.7322ZM60.8858 5.43006C60.4031 5.43006 59.9821 5.5941 59.6362 5.91916C59.2889 6.24513 59.1127 6.65556 59.1127 7.13992C59.1127 7.61667 59.2868 8.01961 59.6308 8.33692C59.9726 8.65331 60.3949 8.81367 60.8859 8.81367C61.3768 8.81367 61.8007 8.6533 62.1465 8.33744C62.4946 8.01961 62.6712 7.6168 62.6712 7.13992C62.6712 6.6725 62.4994 6.26628 62.1609 5.93229C61.8226 5.59896 61.3935 5.43006 60.8858 5.43006ZM53.5684 9.81392V23.1784H56.5614V5.81107H52.419L47.1537 18.711L42.044 5.81107H37.7329V23.1783H40.5455V9.81261H40.6421L46.0378 23.1784H48.1604L53.4718 9.81392H53.5684Z" fill="#706D6E"></path>
      <path d="M13.7964 13.7824H-3.05176e-05V0.00952148H13.7964V13.7824Z" fill="#F1511B"></path>
      <path d="M29.0293 13.7802H15.2331V0.00732422H29.0293V13.7802Z" fill="#80CC28"></path>
      <path d="M13.796 28.9925H-3.05176e-05V15.2197H13.796V28.9925Z" fill="#00ADEF"></path>
      <path d="M29.0293 28.9925H15.2331V15.2197H29.0293V28.9925Z" fill="#FBBC09"></path>
    </g>
    <defs>
      <clipPath id="clip0_42:816">
        <rect width="136" height="29" fill="white"></rect>
      </clipPath>
    </defs>
  </symbol>
  <symbol fill="none" xmlns="http://www.w3.org/2000/svg" viewBox="0 0 107 27" id="slack">
    <path fill-rule="evenodd" clip-rule="evenodd" d="M34.2314 21.2593L35.5667 18.165C37.0091 19.2405 38.9308 19.7996 40.8269 19.7996C42.2264 19.7996 43.1124 19.2619 43.1124 18.4467C43.091 16.1675 34.7279 17.9516 34.6637 12.2366C34.6423 9.33427 37.2274 7.09778 40.8911 7.09778C43.0696 7.09778 45.2438 7.63556 46.7975 8.86051L45.5477 12.0189C44.1267 11.1141 42.3591 10.4696 40.6771 10.4696C39.5343 10.4696 38.781 11.0074 38.781 11.6945C38.8024 13.931 47.2297 12.7061 47.3153 18.165C47.3153 21.1313 44.7944 23.2184 41.1735 23.2184C38.5199 23.2141 36.0846 22.591 34.2314 21.2593ZM85.5101 17.0467C84.8424 18.2076 83.5926 19.0015 82.146 19.0015C80.0103 19.0015 78.2897 17.2815 78.2897 15.156C78.2897 13.0304 80.0145 11.3104 82.146 11.3104C83.5884 11.3104 84.8424 12.1043 85.5101 13.2652L89.1951 11.225C87.817 8.77514 85.1634 7.09778 82.146 7.09778C77.6819 7.09778 74.0611 10.7086 74.0611 15.1602C74.0611 19.6119 77.6819 23.2227 82.146 23.2227C85.1848 23.2227 87.817 21.5666 89.1951 19.0954L85.5101 17.0467ZM49.1686 0.409668H53.7824V22.9154H49.1686V0.409668ZM91.0056 0.409668V22.9154H95.6194V16.1632L101.094 22.9154H107L100.036 14.8956L106.482 7.41362H100.832L95.6152 13.6237V0.409668H91.0056Z" fill="black"></path>
    <path d="M67.4913 17.0894C66.8236 18.1863 65.4454 19.0015 63.8918 19.0015C61.7561 19.0015 60.0355 17.2815 60.0355 15.1559C60.0355 13.0304 61.7604 11.3104 63.8918 11.3104C65.4454 11.3104 66.8236 12.1683 67.4913 13.2865V17.0894ZM67.4913 7.41788V9.24463C66.738 7.977 64.8634 7.09351 62.8988 7.09351C58.8457 7.09351 55.6571 10.6616 55.6571 15.1346C55.6571 19.6076 58.8457 23.2184 62.8988 23.2184C64.8591 23.2184 66.7337 22.3392 67.4913 21.0673V22.894H72.1051V7.41788H67.4913Z" fill="black"></path>
    <path fill-rule="evenodd" clip-rule="evenodd" d="M5.71373 17.068C5.71373 18.6387 4.44257 19.9063 2.86753 19.9063C1.29249 19.9063 0.0213318 18.6344 0.0213318 17.068C0.0213318 15.5016 1.29249 14.2297 2.86753 14.2297H5.71373V17.068ZM7.13469 17.068C7.13469 15.4974 8.40585 14.2297 9.98089 14.2297C11.5559 14.2297 12.8271 15.4974 12.8271 17.068V24.1616C12.8271 25.7323 11.5559 26.9999 9.98089 26.9999C8.40585 26.9999 7.13469 25.7323 7.13469 24.1616V17.068Z" fill="#E01E5A"></path>
    <path fill-rule="evenodd" clip-rule="evenodd" d="M9.98096 5.67657C8.40592 5.67657 7.13476 4.40895 7.13476 2.83829C7.13476 1.26763 8.40592 0 9.98096 0C11.556 0 12.8272 1.26763 12.8272 2.83829V5.67657H9.98096ZM9.98096 7.11492C11.556 7.11492 12.8272 8.38255 12.8272 9.95321C12.8272 11.5239 11.556 12.7915 9.98096 12.7915H2.8462C1.27116 12.7915 0 11.5196 0 9.95321C0 8.38682 1.27116 7.11492 2.8462 7.11492H9.98096Z" fill="#36C5F0"></path>
    <path fill-rule="evenodd" clip-rule="evenodd" d="M21.3828 9.95321C21.3828 8.38255 22.654 7.11492 24.229 7.11492C25.804 7.11492 27.0752 8.38255 27.0752 9.95321C27.0752 11.5239 25.804 12.7915 24.229 12.7915H21.3828V9.95321ZM19.9618 9.95321C19.9618 11.5239 18.6907 12.7915 17.1156 12.7915C15.5406 12.7915 14.2694 11.5239 14.2694 9.95321V2.83829C14.2694 1.26763 15.5406 0 17.1156 0C18.6907 0 19.9618 1.26763 19.9618 2.83829V9.95321Z" fill="#2EB67D"></path>
    <path fill-rule="evenodd" clip-rule="evenodd" d="M17.1156 21.3233C18.6907 21.3233 19.9618 22.5909 19.9618 24.1616C19.9618 25.7323 18.6907 26.9999 17.1156 26.9999C15.5406 26.9999 14.2694 25.7323 14.2694 24.1616V21.3233H17.1156ZM17.1156 19.9063C15.5406 19.9063 14.2694 18.6387 14.2694 17.068C14.2694 15.4974 15.5406 14.2297 17.1156 14.2297H24.2504C25.8254 14.2297 27.0966 15.4974 27.0966 17.068C27.0966 18.6387 25.8254 19.9063 24.2504 19.9063H17.1156Z" fill="#ECB22E"></path>
  </symbol>
  <symbol fill="none" xmlns="http://www.w3.org/2000/svg" viewBox="0 0 48 48" id="social-facebook">
    <path d="M24 5C18.9609 5 14.1282 7.00178 10.565 10.565C7.00178 14.1282 5 18.9609 5 24C5 29.0391 7.00178 33.8718 10.565 37.435C14.1282 40.9982 18.9609 43 24 43C29.0391 43 33.8718 40.9982 37.435 37.435C40.9982 33.8718 43 29.0391 43 24C43 18.9609 40.9982 14.1282 37.435 10.565C33.8718 7.00178 29.0391 5 24 5Z" fill="#4267B2"></path>
    <path d="M26.572 29.036H31.489L32.261 24.041H26.571V21.311C26.571 19.236 27.249 17.396 29.19 17.396H32.309V13.037C31.761 12.963 30.602 12.801 28.412 12.801C23.839 12.801 21.158 15.216 21.158 20.718V24.041H16.457V29.036H21.158V42.765C22.089 42.905 23.032 43 24 43C24.875 43 25.729 42.92 26.572 42.806V29.036Z" fill="white"></path>
  </symbol>
  <symbol fill="none" xmlns="http://www.w3.org/2000/svg" viewBox="0 0 99 27" id="netflix">
    <g clip-path="url(#clip0_42:822)">
      <path d="M93.704 12.8542L99 26.9745C97.4392 26.75 95.8793 26.4688 94.2909 26.2155L91.3075 18.4135L88.2421 25.5715C86.7375 25.3181 85.2596 25.2338 83.7549 25.037L89.134 12.6863L84.2552 0.0273438H88.7709L91.5018 7.1001L94.4291 0.0273438H98.9991L93.704 12.8542ZM80.6895 0.0273438H76.5922V24.5044C77.9301 24.5888 79.3231 24.6445 80.6895 24.8125V0.0273438ZM73.0522 24.2233C69.318 23.9708 65.5826 23.7472 61.7644 23.6619V0.0274522H65.9448V19.6763C68.3422 19.732 70.7387 19.9279 73.0522 20.0401V24.2233ZM57.3041 9.59985V13.8099H51.5907V23.3815H47.4666V0.0273438H59.1726V4.23738H51.5915V9.59996H57.305L57.3041 9.59985ZM40.442 4.23738V23.6061C39.048 23.6061 37.6273 23.6061 36.2609 23.6619V4.23738H31.9406V0.0273438H44.789V4.23738H40.442ZM27.4259 14.0336C25.5867 14.0336 23.4123 14.0336 21.8515 14.119V20.3778C24.3042 20.209 26.7569 20.0131 29.2371 19.9288V23.9708L17.6712 24.8978V0.0273438H29.2364V4.23738H21.8514V9.90795C23.4684 9.90795 25.9487 9.82358 27.4256 9.82358V14.0345L27.4259 14.0336ZM4.2633 11.6757V26.3844C2.75958 26.5532 1.42081 26.7499 0 26.9745V0.0273438H3.98592L9.42034 15.3263V0.0273438H13.6015V25.2338C12.1245 25.4871 10.619 25.5715 9.03054 25.7952L4.2633 11.6757Z" fill="#E50914"></path>
    </g>
    <defs>
      <clipPath id="clip0_42:822">
        <rect width="99" height="27" fill="white"></rect>
      </clipPath>
    </defs>
  </symbol>
  <symbol fill="none" xmlns="http://www.w3.org/2000/svg" viewBox="0 0 48 48" id="social-linkedin">
    <path d="M42 37C42 39.762 39.762 42 37 42H11C8.239 42 6 39.762 6 37V11C6 8.238 8.239 6 11 6H37C39.762 6 42 8.238 42 11V37Z" fill="#0288D1"></path>
    <path d="M12 19H17V36H12V19ZM14.485 17H14.457C12.965 17 12 15.888 12 14.499C12 13.08 12.995 12 14.514 12C16.035 12 16.972 13.08 17 14.499C17 15.887 16.035 17 14.485 17ZM36 36H31V26.901C31 24.703 29.775 23.203 27.808 23.203C26.307 23.203 25.495 24.215 25.101 25.193C24.957 25.543 25 26.511 25 27V36H20V19H25V21.616C25.721 20.5 26.85 19 29.738 19C33.316 19 35.999 21.25 35.999 26.274L36 36Z" fill="white"></path>
  </symbol>
  <symbol fill="none" xmlns="http://www.w3.org/2000/svg" viewBox="0 0 48 48" id="social-twitter">
    <path d="M42 12.429C40.677 13.015 39.254 13.406 37.753 13.591C39.279 12.685 40.453 11.24 41.004 9.533C39.576 10.37 37.994 10.985 36.311 11.309C34.967 9.884 33.05 9 30.926 9C26.846 9 23.539 12.278 23.539 16.32C23.539 16.892 23.606 17.449 23.732 17.99C17.594 17.682 12.15 14.764 8.50801 10.336C7.86801 11.418 7.50801 12.685 7.50801 14.022C7.50801 16.563 8.80901 18.8 10.793 20.118C9.58201 20.081 8.44201 19.744 7.44401 19.204C7.44401 19.226 7.44401 19.259 7.44401 19.29C7.44401 22.841 9.99101 25.798 13.367 26.471C12.75 26.64 12.098 26.734 11.426 26.734C10.949 26.734 10.484 26.68 10.034 26.599C10.974 29.501 13.701 31.622 16.932 31.685C14.404 33.645 11.22 34.819 7.75801 34.819C7.16001 34.819 6.57501 34.785 5.99701 34.715C9.26801 36.786 13.152 38 17.321 38C30.906 38 38.338 26.844 38.338 17.166C38.338 16.849 38.328 16.533 38.313 16.221C39.763 15.197 41.013 13.905 42 12.429Z" fill="#03A9F4"></path>
  </symbol>
  <symbol fill="none" xmlns="http://www.w3.org/2000/svg" viewBox="0 0 48 48" id="social-instagram">
    <path d="M41.67 13.48C41.27 13.74 40.7 13.98 40.46 14.25C40.37 14.34 40.32 14.44 40.34 14.54V15.57L40.04 16.58L39.74 17.58L39.41 18.68L38.73 20.93L38.07 23.15L37.57 24.82C37.57 25.08 37.56 25.34 37.54 25.59C37.47 26.55 37.27 27.47 36.95 28.33C36.76 28.86 36.53 29.37 36.25 29.85C36.15 30.04 36.03 30.23 35.91 30.41C35.51 31.04 35.03 31.62 34.5 32.13C34.09 32.54 33.64 32.92 33.15 33.24C33.15 33.24 33.15 33.24 33.14 33.24C33.06 33.31 32.97 33.37 32.87 33.42C32.56 33.63 32.23 33.81 31.89 33.97C31.66 34.09 31.43 34.19 31.19 34.28C31.14 34.31 31.08 34.33 31.03 34.35C30.46 34.62 29.8 34.8 29.14 34.89C29.1 34.9 29.07 34.9 29.03 34.91C28.63 34.98 28.24 35.04 27.84 35.07C27.66 35.09 27.47 35.1 27.29 35.1L26.58 35.06L23.16 34.88C23.16 34.87 23.15 34.88 23.15 34.88L21.43 34.79C21.3 34.79 21.16 34.79 21.03 34.78C20.49 34.76 19.97 34.7 19.45 34.59C19.44 34.59 19.44 34.59 19.44 34.59C18.49 34.41 17.58 34.09 16.73 33.66C16.26 33.42 15.8 33.15 15.37 32.84C15.19 32.71 15.02 32.57 14.85 32.42C14.37 32.02 13.94 31.59 13.54 31.15C13.48 31.09 13.43 31.03 13.38 30.97C13.32 30.91 13.26 30.84 13.21 30.78C12.83 30.3 12.51 29.81 12.25 29.29C12.01 28.83 11.82 28.34 11.67 27.8C11.61 27.61 11.56 27.43 11.52 27.23C11.51 27.22 11.5 27.2 11.5 27.18C11.4 26.77 11.31 26.34 11.26 25.91C11.2 25.58 11.17 25.25 11.17 24.91C11.15 24.78 11.15 24.64 11.15 24.51L13.06 21.56L14.93 18.68L15.78 17.37L16.55 16.19L16.81 15.78V14.75C16.83 14.52 16.84 14.28 16.83 14.06C16.82 13.36 16.68 12.68 16.45 12.03C16.23 11.34 15.92 10.69 15.6 10.09C15.22 9.4 14.82 8.78 14.49 8.22C14 7.4 13.66 6.73 13.75 6.26C14.47 6.09 15.23 6 16 6H32C36.18 6 39.78 8.6 41.27 12.26C41.43 12.65 41.57 13.06 41.67 13.48Z" fill="#304FFE"></path>
    <path d="M42 16V16.27L40.62 17.07L39.74 17.58L38.77 18.14L36.83 19.27L34.93 20.37L32.99 21.49L32.22 21.94C32.22 22.42 32.1 22.86 31.88 23.26C31.57 23.84 31.05 24.32 30.39 24.73C29.72 25.14 28.9 25.47 27.98 25.71C27.98 25.71 27.98 25.7 27.97 25.71C24.41 26.63 19.55 26.21 17.19 24.45C16.53 23.96 16.07 23.36 15.87 22.67C15.81 22.44 15.78 22.19 15.78 21.94V14.75C15.79 14.6 15.69 14.45 15.51 14.3C14.97 13.87 13.7 13.46 12.28 13.05C11.17 12.74 9.97999 12.43 8.97999 12.13C8.18999 11.89 7.52 11.65 7.12 11.42C7.3 11.07 7.51 10.72 7.73 10.39C9.13 8.34 11.27 6.83 13.75 6.26C14.47 6.09 15.23 6 16 6H26.8C32.17 6.94 37.12 9.13 41.27 12.26C41.43 12.65 41.57 13.06 41.67 13.48C41.85 14.14 41.96 14.82 41.99 15.53C42 15.68 42 15.84 42 16Z" fill="#4928F4"></path>
    <path d="M42 16.0001V20.4101L41.78 21.0901L41.03 23.4201L40.25 25.8201L39.84 27.1001L39.46 28.2901L39.09 29.4201L38.73 30.5401L38.54 31.1301L38.29 31.9101C38.29 32.6701 38.27 33.3401 38.22 33.9101C38.21 33.9701 38.2 34.0301 38.2 34.0901C38.14 34.6201 38.06 35.0701 37.93 35.4501C37.92 35.5101 37.9 35.5701 37.88 35.6201C37.62 36.3401 37.23 36.8001 36.65 37.1001C36.51 37.1801 36.35 37.2401 36.18 37.3001C35.65 37.4801 34.98 37.5701 34.16 37.6201C33.56 37.6601 32.87 37.6701 32.09 37.6701H31.4L30.21 37.6201L30 37.6101L27.83 37.5201L25.63 37.4301L18.38 37.1301L16.5 37.0501H16.24C15.46 37.0401 14.79 36.9901 14.21 36.9101C13.37 36.7801 12.72 36.5601 12.23 36.2301C11.53 35.7801 11.12 35.1201 10.88 34.2001C10.82 33.9801 10.77 33.7501 10.74 33.5001C10.64 32.9201 10.59 32.2501 10.56 31.5001C10.56 31.3501 10.56 31.2001 10.55 31.0401C10.54 31.0301 10.55 31.0301 10.55 31.0301V30.4501C10.54 30.1601 10.54 29.8601 10.54 29.5501L10.59 27.9401L10.62 26.7901L10.66 25.4501V25.2601L10.73 22.8001L10.8 20.3401L10.87 18.0301L10.93 15.7601L10.95 15.1601C10.95 14.8501 9.90001 14.6701 8.73001 14.5201C7.80001 14.4001 6.78001 14.2901 6.17001 14.1501C6.22001 13.9201 6.27001 13.6901 6.33001 13.4701C6.51001 12.7501 6.78001 12.0701 7.12001 11.4201C7.30001 11.0701 7.51001 10.7201 7.73001 10.3901C9.89001 9.44006 12.14 8.70006 14.49 8.22006C16.55 7.79006 18.7 7.56006 20.92 7.56006C28.28 7.56006 35.08 10.0501 40.46 14.2501C40.98 14.6501 41.49 15.0801 41.99 15.5301C42 15.6801 42 15.8401 42 16.0001Z" fill="#6200EA"></path>
    <path d="M42 18.37V22.91L41.45 23.97L40.4 26.02L39.84 27.1L39.33 28.09L39.11 28.52C39.11 28.83 39.11 29.13 39.09 29.42C39.09 29.85 39.07 30.26 39.04 30.64C39 31.09 38.94 31.5 38.88 31.88C38.73 32.67 38.52 33.35 38.22 33.91C38.18 33.98 38.14 34.05 38.1 34.11C37.99 34.29 37.86 34.46 37.72 34.62C37.54 34.84 37.34 35.03 37.11 35.19C36.77 35.45 36.37 35.66 35.91 35.82C35.34 36.03 34.68 36.17 33.9 36.25C33.39 36.3 32.83 36.33 32.22 36.33L31.8 36.35L29.72 36.47H29.71L27.5 36.6L25.25 36.73L22.15 36.91L18.38 37.13L17.83 37.16C17.32 37.16 16.84 37.13 16.38 37.07C16.33 37.06 16.29 37.05 16.24 37.05C15.56 36.94 14.94 36.76 14.38 36.51C13.7 36.21 13.11 35.81 12.61 35.33C12.17 34.9 11.79 34.41 11.48 33.86C11.41 33.73 11.34 33.61 11.28 33.47C10.98 32.88 10.74 32.22 10.56 31.5C10.53 31.38 10.5 31.25 10.48 31.12C10.42 30.89 10.37 30.65 10.34 30.4C10.23 29.76 10.17 29.08 10.14 28.37V28.36C10.13 28.07 10.12 27.79 10.12 27.49L9.63 26.32L9.56 26.14L9.5 25.99L8.75 24.2L8.63 23.91L7.91 22.18L7.11 20.25C7.11 20.25 7.11 20.25 7.1 20.25L6.29 18.3L6 17.59V16C6 15.37 6.06 14.75 6.17 14.15C6.22 13.92 6.27 13.69 6.33 13.47C7.18 12.98 8.07 12.53 8.98 12.13C11.06 11.2 13.29 10.51 15.6 10.09C17.32 9.77999 19.11 9.60999 20.92 9.60999C28.23 9.60999 34.86 12.26 40.04 16.58C40.24 16.74 40.43 16.9 40.62 17.07C41.09 17.48 41.55 17.91 42 18.37Z" fill="#673AB7"></path>
    <path d="M42 21.35V26.49L41.43 27.68L40.35 29.93L40.34 29.96C40.34 30.39 40.32 30.78 40.29 31.13C40.19 32.28 39.91 33.01 39.45 33.46C39.12 33.8 38.71 33.99 38.2 34.09C38.17 34.1 38.13 34.1 38.1 34.11C37.94 34.14 37.77 34.16 37.59 34.16C36.97 34.22 36.24 34.18 35.4 34.12C35.31 34.12 35.21 34.11 35.11 34.1C34.5 34.06 33.85 34.02 33.13 33.99C32.74 33.98 32.33 33.97 31.91 33.97H31.89L30.88 34.05H30.87L28.6 34.21L26.01 34.41L25.63 34.44L22.6 34.66L21.03 34.78L19.48 34.89C19.21 34.89 18.95 34.89 18.69 34.88C18.69 34.88 18.68 34.87 18.68 34.88C17.55 34.86 16.54 34.79 15.64 34.62C14.81 34.48 14.08 34.26 13.46 33.93C12.82 33.62 12.29 33.18 11.86 32.62C11.45 32.07 11.15 31.38 10.96 30.55C10.96 30.54 10.96 30.54 10.96 30.54C10.82 29.87 10.74 29.09 10.74 28.21L10.59 27.94L9.7 26.35L9.57 26.13L9.5 25.99L8.57 24.34L8.11 23.51L7.53 22.48L6.53 20.69L6 19.75V16.07C6.88 15.49 7.79 14.98 8.73 14.52C9.87 13.94 11.05 13.45 12.28 13.05C13.62 12.61 15.02 12.26 16.45 12.03C17.9 11.79 19.39 11.67 20.92 11.67C27.72 11.67 33.96 14.1 38.77 18.14C38.99 18.31 39.2 18.5 39.41 18.68C40.25 19.43 41.05 20.24 41.78 21.09C41.86 21.18 41.94 21.26 42 21.35Z" fill="#8E24AA"></path>
    <path d="M42 24.71V31.94C41.76 31.8 41.43 31.63 41.02 31.45C40.8 31.34 40.55 31.23 40.29 31.13C39.91 30.96 39.5 30.8 39.04 30.64C38.94 30.6 38.84 30.57 38.73 30.54C38.55 30.47 38.36 30.41 38.17 30.35C37.58 30.17 36.93 30 36.25 29.85C35.99 29.8 35.72 29.75 35.45 29.71C34.58 29.56 33.65 29.47 32.68 29.46C32.6 29.45 32.51 29.45 32.43 29.45L29.86 29.47L26.36 29.49H26.35L18.86 29.55C16.48 29.55 15.02 30.12 14.14 30.35C14.14 30.35 14.13 30.35 14.13 30.36C13.2 30.6 12.91 30.45 12.83 28.82C12.81 28.37 12.8 27.79 12.8 27.08L12.24 26.65L11.26 25.91L10.66 25.45L10.54 25.36L8.88 24.1L8.63 23.91L8.11 23.51L7.15 22.79L6 21.91V18.51C6.1 18.43 6.19 18.36 6.29 18.3C7.74 17.3 9.29 16.45 10.93 15.76C12.39 15.14 13.93 14.65 15.51 14.3C15.94 14.21 16.38 14.12 16.83 14.06C18.16 13.83 19.53 13.72 20.92 13.72C26.93 13.72 32.45 15.81 36.83 19.27C37.49 19.79 38.13 20.34 38.73 20.93C39.55 21.71 40.32 22.54 41.03 23.42C41.17 23.6 41.31 23.78 41.45 23.97C41.64 24.21 41.82 24.46 42 24.71Z" fill="#C2185B"></path>
    <path d="M42 28.72V32C42 32.65 41.94 33.29 41.82 33.91C41.64 34.83 41.33 35.71 40.91 36.53C40.69 36.58 40.44 36.58 40.16 36.54C39.53 36.43 38.79 36.1 37.99 35.67C37.95 35.66 37.91 35.64 37.88 35.62C37.63 35.49 37.37 35.35 37.11 35.19C36.58 34.9 36.02 34.58 35.46 34.28C35.34 34.22 35.22 34.16 35.11 34.1C34.47 33.77 33.81 33.47 33.15 33.24C33.15 33.24 33.15 33.24 33.14 33.24C33 33.19 32.85 33.14 32.7 33.1C32.13 32.94 31.55 32.84 30.99 32.84L29.89 32.52L25.02 31.11C25.02 31.11 25.02 31.11 25.01 31.11L22.02 30.24H22.01L20.71 29.86C16.95 29.86 14.64 31.46 13.52 30.85C13.08 30.62 12.82 30.04 12.73 28.9C12.7 28.58 12.69 28.22 12.69 27.8L11.52 27.23L11.47 27.21H11.46L10.62 26.79L9.7 26.35L9.63 26.32L9.46 26.23L7.5 25.28L6 24.55V21.12C6.17 20.97 6.35 20.83 6.53 20.69C6.72 20.54 6.91 20.4 7.1 20.25C7.11 20.25 7.11 20.25 7.11 20.25C8.29 19.4 9.54 18.65 10.87 18.03C12.42 17.29 14.07 16.72 15.78 16.35C16.03 16.29 16.29 16.23 16.55 16.19C17.97 15.92 19.43 15.78 20.92 15.78C26.19 15.78 31.03 17.49 34.93 20.37C36.06 21.21 37.11 22.14 38.07 23.15C38.86 23.98 39.59 24.88 40.25 25.82C40.3 25.89 40.35 25.96 40.4 26.02C40.77 26.56 41.11 27.11 41.43 27.68C41.64 28.02 41.82 28.37 42 28.72Z" fill="#D81B60"></path>
    <path d="M41.82 33.91C41.64 34.83 41.33 35.71 40.91 36.53C40.72 36.9 40.51 37.25 40.28 37.59C40.14 37.8 39.99 38 39.84 38.19C39.48 38.05 38.95 37.85 38.3 37.63C38.3 37.63 38.3 37.63 38.3 37.62C37.81 37.45 37.25 37.27 36.65 37.1C36.48 37.05 36.31 37 36.13 36.95C35.42 36.76 34.68 36.59 33.96 36.49C33.36 36.39 32.77 36.33 32.22 36.33L31.76 36.2H31.75L29.33 35.5L27.84 35.07L26.18 34.59H26.17L25.63 34.44L19.1 32.56L17.22 32.02L15.82 31.69L13.54 31.15L13.26 31.08C13.26 31.08 13.26 31.08 13.25 31.08L10.96 30.55C10.96 30.54 10.96 30.54 10.96 30.54L10.55 30.45L10.34 30.4L8.67 30.01L8.48 29.96L7.06 28.79L6 27.9V23.82C6.37 23.46 6.75 23.12 7.15 22.79C7.27 22.68 7.4 22.58 7.53 22.48C7.65 22.38 7.78 22.28 7.91 22.18C8.82 21.49 9.78 20.87 10.8 20.34C12.1 19.64 13.48 19.08 14.93 18.68C15.21 18.59 15.49 18.51 15.78 18.45C17.42 18.04 19.14 17.83 20.92 17.83C25.39 17.83 29.55 19.18 32.99 21.49C34.7 22.64 36.24 24.02 37.54 25.59C38.2 26.38 38.8 27.21 39.33 28.09C39.38 28.16 39.42 28.22 39.46 28.29C39.78 28.82 40.08 29.37 40.35 29.93C40.6 30.43 40.82 30.93 41.02 31.45C41.34 32.25 41.6 33.07 41.82 33.91Z" fill="#F50057"></path>
    <path d="M40.28 37.59C40.14 37.8 39.99 38 39.84 38.19C39.4 38.74 38.92 39.24 38.38 39.68C37.91 40.07 37.41 40.42 36.88 40.72C36.68 40.67 36.48 40.61 36.27 40.53C35.61 40.3 34.92 39.92 34.28 39.52C33.32 38.91 32.49 38.25 32.12 37.95C31.98 37.83 31.91 37.77 31.91 37.77L30.21 37.62L30 37.6L27.8 37.41L25.52 37.21L22.15 36.91L16.81 36.44L16.79 36.43L14.91 35.52L13.01 34.6L11.48 33.86L11.15 33.7L10.74 33.5L9.32 32.81L7.43 31.9L6.84 31.61L6 31.35V26.88C6.47 26.32 6.97 25.79 7.5 25.28C7.84 24.96 8.2 24.64 8.57 24.34C8.63 24.29 8.69 24.24 8.75 24.2C8.79 24.15 8.84 24.12 8.88 24.1C9.47 23.62 10.09 23.19 10.73 22.8C11.47 22.33 12.25 21.91 13.06 21.56C13.93 21.17 14.84 20.84 15.78 20.59C17.41 20.13 19.14 19.89 20.92 19.89C25 19.89 28.77 21.13 31.88 23.26C33.87 24.62 35.59 26.34 36.95 28.33C37.4 28.97 37.8 29.65 38.17 30.35C38.3 30.61 38.43 30.87 38.54 31.13C38.66 31.38 38.77 31.63 38.88 31.88C39.09 32.4 39.28 32.92 39.45 33.46C39.77 34.46 40.01 35.48 40.16 36.54C40.21 36.89 40.25 37.24 40.28 37.59Z" fill="#FF1744"></path>
    <path d="M38.39 39.4199C38.39 39.4999 38.39 39.5899 38.38 39.6799C37.91 40.0699 37.41 40.4199 36.88 40.7199C36.66 40.8399 36.44 40.9599 36.21 41.0599C35.98 41.1699 35.75 41.2699 35.51 41.3599C35.17 41.1799 34.71 40.9599 34.22 40.7499C33.53 40.4399 32.78 40.1599 32.2 40.0699C32.06 40.0399 31.93 40.0299 31.81 40.0299L30.17 39.8199H30.15L28.11 39.5499L26.05 39.2799L25.09 39.1599L17.53 38.1799C17.04 38.1799 16.52 38.1499 15.98 38.0799C15.32 38.0199 14.63 37.9199 13.94 37.7799C13.26 37.6599 12.57 37.4999 11.91 37.3299C11.22 37.1699 10.54 36.9799 9.91 36.7999C9.18 36.5799 8.5 36.3699 7.93 36.1799C7.46 36.0299 7.06 35.8899 6.75 35.7799C6.57 35.3499 6.42 34.8999 6.31 34.4399C6.1 33.6599 6 32.8399 6 31.9999V30.3299C6.32 29.7999 6.67 29.2799 7.06 28.7899C7.77 27.8499 8.58 26.9899 9.46 26.2299C9.49 26.1899 9.53 26.1599 9.56 26.1399L9.57 26.1299C9.88 25.8499 10.2 25.5999 10.54 25.3599C10.58 25.3199 10.62 25.2899 10.66 25.2599C10.82 25.1399 10.99 25.0199 11.17 24.9099C12.6 23.9399 14.18 23.1799 15.87 22.6699C17.47 22.1899 19.16 21.9399 20.92 21.9399C24.41 21.9399 27.67 22.9699 30.39 24.7299C32.4 26.0199 34.13 27.7199 35.45 29.7099C35.61 29.9399 35.76 30.1699 35.91 30.4099C36.6 31.5799 37.17 32.8399 37.59 34.1599C37.64 34.3099 37.68 34.4599 37.72 34.6199C37.8 34.8899 37.87 35.1699 37.93 35.4499C37.95 35.5199 37.97 35.5899 37.99 35.6699C38.13 36.2999 38.23 36.9599 38.3 37.6199C38.3 37.6299 38.3 37.6299 38.3 37.6299C38.36 38.2199 38.39 38.8199 38.39 39.4199Z" fill="#FF5722"></path>
    <path d="M36.33 39.42C36.33 39.77 36.31 40.15 36.27 40.53C36.25 40.71 36.23 40.89 36.21 41.06C35.98 41.17 35.75 41.27 35.51 41.36C35.06 41.53 34.6 41.67 34.13 41.77C33.81 41.84 33.48 41.9 33.15 41.93H33.14C32.83 41.74 32.47 41.51 32.1 41.25C31.43 40.78 30.73 40.25 30.17 39.82C30.16 39.81 30.16 39.81 30.15 39.8C29.56 39.35 29.14 39.01 29.14 39.01L28.08 39.05L26.04 39.12L25.09 39.16L21.27 39.3L18.04 39.42C17.83 39.43 17.58 39.43 17.27 39.42H17.26C16.84 39.41 16.34 39.38 15.79 39.33C15.15 39.28 14.45 39.22 13.74 39.15C13.05 39.07 12.35 38.99 11.68 38.91C10.94 38.83 10.24 38.74 9.64 38.66C9.17 38.6 8.76 38.55 8.43 38.51C8.15 38.19 7.9 37.86 7.66 37.5C7.3 36.96 6.99 36.39 6.75 35.78C6.57 35.35 6.42 34.9 6.31 34.44C6.6 33.55 6.98 32.71 7.43 31.9C7.79 31.24 8.21 30.61 8.67 30.01C9.12 29.42 9.61 28.87 10.14 28.37V28.36C10.29 28.21 10.44 28.07 10.59 27.94C10.87 27.68 11.16 27.44 11.46 27.21H11.47C11.48 27.19 11.49 27.19 11.5 27.18C11.74 26.99 11.99 26.82 12.24 26.65C13.72 25.64 15.39 24.89 17.19 24.45C18.38 24.16 19.63 24 20.92 24C23.46 24 25.86 24.61 27.97 25.71H27.98C29.79 26.64 31.39 27.92 32.68 29.46C33.39 30.28 34 31.18 34.5 32.13C34.85 32.77 35.15 33.44 35.4 34.12C35.42 34.18 35.44 34.23 35.46 34.28C35.63 34.78 35.78 35.3 35.91 35.82C36 36.19 36.07 36.57 36.13 36.95C36.15 37.07 36.17 37.18 36.18 37.3C36.28 37.99 36.33 38.7 36.33 39.42Z" fill="#FF6F00"></path>
    <path d="M34.28 39.4201V39.5201C34.28 39.8601 34.25 40.2901 34.22 40.7501C34.19 41.0901 34.16 41.4401 34.13 41.7701C33.81 41.8401 33.48 41.9001 33.15 41.9301H33.14C32.76 41.9801 32.39 42.0001 32 42.0001H30.25L29.87 41.8901L27.9 41.2901L25.9 40.6901L21.27 39.3001L19.27 38.7001C19.27 38.7001 18.44 39.0301 17.27 39.4201H17.26C16.81 39.5701 16.32 39.7301 15.8 39.8901C15.15 40.0801 14.46 40.2701 13.78 40.4201C13.08 40.5801 12.39 40.7001 11.77 40.7501C11.58 40.7701 11.39 40.7801 11.22 40.7801C10.66 40.4701 10.12 40.1001 9.63 39.6901C9.2 39.3301 8.8 38.9401 8.43 38.5101C8.15 38.1901 7.9 37.8601 7.66 37.5001C7.73 37.0501 7.81 36.6101 7.93 36.1801C8.23 34.9901 8.7 33.8501 9.32 32.8101C9.66 32.2201 10.04 31.6501 10.48 31.1201C10.49 31.0901 10.52 31.0601 10.55 31.0401C10.54 31.0301 10.55 31.0301 10.55 31.0301C10.68 30.8601 10.82 30.7001 10.96 30.5501C10.96 30.5401 10.96 30.5401 10.96 30.5401C11.37 30.1001 11.79 29.6801 12.25 29.2901C12.41 29.1601 12.56 29.0301 12.73 28.9001C12.76 28.8701 12.79 28.8501 12.83 28.8201C15.08 27.1001 17.89 26.0601 20.92 26.0601C24.36 26.0601 27.49 27.3501 29.86 29.4701C31 30.5001 31.97 31.7301 32.7 33.1001C32.76 33.2001 32.82 33.3101 32.87 33.4201C32.96 33.6001 33.05 33.7901 33.13 33.9901C33.46 34.7101 33.72 35.4701 33.9 36.2501C33.92 36.3301 33.94 36.4101 33.96 36.4901C34.04 36.8601 34.11 37.2401 34.16 37.6201C34.24 38.2101 34.28 38.8101 34.28 39.4201Z" fill="#FF9800"></path>
    <path d="M32.22 39.42C32.22 39.62 32.21 39.84 32.2 40.07C32.18 40.44 32.15 40.84 32.1 41.25C32.08 41.5 32.04 41.75 32 42H26.52L25.46 41.83L21.32 41.17L20.73 41.08L19.38 40.86C18.79 40.86 17.51 41.12 16.16 41.37C15.45 41.5 14.73 41.64 14.08 41.73C14 41.74 13.92 41.75 13.85 41.76H13.84C13.14 41.61 12.46 41.38 11.82 41.08C11.62 40.99 11.42 40.89 11.22 40.78C10.66 40.47 10.12 40.1 9.62999 39.69C9.61999 39.57 9.60999 39.47 9.60999 39.42C9.60999 39.16 9.61999 38.91 9.63999 38.66C9.67999 38.02 9.76999 37.4 9.90999 36.8C10.13 35.89 10.45 35.01 10.88 34.2C10.96 34.03 11.05 33.86 11.15 33.7C11.19 33.62 11.24 33.55 11.28 33.47C11.46 33.18 11.66 32.9 11.86 32.62C12.28 32.07 12.75 31.55 13.25 31.08C13.26 31.08 13.26 31.08 13.26 31.08C13.3 31.04 13.34 31 13.38 30.97C13.43 30.93 13.47 30.88 13.52 30.85C13.72 30.67 13.92 30.51 14.13 30.36C14.13 30.35 14.14 30.35 14.14 30.35C16.03 28.94 18.37 28.11 20.92 28.11C22.9 28.11 24.74 28.61 26.35 29.49H26.36C27.74 30.25 28.94 31.28 29.89 32.52C30.26 33 30.59 33.51 30.87 34.05H30.88C30.93 34.15 30.98 34.25 31.03 34.35C31.33 34.94 31.57 35.56 31.75 36.2H31.76C31.77 36.25 31.79 36.3 31.8 36.35C31.92 36.78 32.02 37.22 32.09 37.67C32.1 37.76 32.11 37.86 32.12 37.95C32.19 38.43 32.22 38.92 32.22 39.42Z" fill="#FFC107"></path>
    <path d="M30.17 39.31C30.17 39.47 30.17 39.64 30.15 39.8V39.81C30.15 39.82 30.15 39.82 30.15 39.82C30.13 40.54 30.03 41.25 29.87 41.89C29.87 41.93 29.86 41.96 29.84 42H25.17L21.32 41.17L20.81 41.06L20.73 41.08L16.46 41.96L16.27 42H16C15.36 42 14.73 41.94 14.12 41.82C14.03 41.8 13.94 41.78 13.85 41.76H13.84C13.14 41.61 12.46 41.38 11.82 41.08C11.8 40.97 11.78 40.86 11.77 40.75C11.7 40.32 11.67 39.87 11.67 39.42C11.67 39.25 11.67 39.08 11.68 38.91C11.71 38.37 11.79 37.84 11.91 37.33C11.99 36.95 12.1 36.58 12.23 36.23C12.34 35.92 12.47 35.62 12.61 35.33C12.73 35.08 12.87 34.84 13.01 34.6C13.15 34.37 13.3 34.15 13.46 33.93C13.86 33.38 14.33 32.87 14.85 32.42C15.15 32.16 15.48 31.91 15.82 31.69C17.28 30.73 19.03 30.17 20.92 30.17C21.29 30.17 21.65 30.19 22 30.24H22.02C23.09 30.36 24.09 30.66 25.01 31.11C25.02 31.11 25.02 31.11 25.02 31.11C26.47 31.82 27.7 32.89 28.6 34.21C28.75 34.43 28.9 34.67 29.03 34.91C29.14 35.1 29.24 35.3 29.33 35.5C29.47 35.81 29.6 36.14 29.71 36.47H29.72C29.83 36.84 29.93 37.21 30 37.6V37.61C30.11 38.16 30.17 38.73 30.17 39.31Z" fill="#FFD54F"></path>
    <path d="M28.11 39.5199V39.5499C28.11 40.1399 28.04 40.7199 27.9 41.2899C27.85 41.5299 27.78 41.7699 27.69 41.9999H23.21L20.92 41.3699L18.63 41.9999H16C15.36 41.9999 14.73 41.9399 14.12 41.8199C14.1 41.7899 14.09 41.7599 14.08 41.7299C13.94 41.2999 13.83 40.8699 13.78 40.4199C13.74 40.1299 13.72 39.8299 13.72 39.5199C13.72 39.3999 13.72 39.2699 13.74 39.1499C13.75 38.6799 13.82 38.2199 13.94 37.7799C14 37.4799 14.09 37.1899 14.21 36.9099C14.25 36.7699 14.31 36.6399 14.38 36.5099C14.53 36.1699 14.71 35.8399 14.91 35.5199C15.13 35.1999 15.37 34.8999 15.64 34.6199C15.96 34.2599 16.32 33.9299 16.73 33.6599C17.43 33.1499 18.23 32.7699 19.1 32.5599C19.68 32.3999 20.29 32.3199 20.92 32.3199C22.92 32.3199 24.71 33.1199 26.01 34.4099C26.06 34.4599 26.12 34.5199 26.17 34.5899H26.18C26.32 34.7399 26.45 34.8899 26.58 35.0599C26.95 35.5299 27.26 36.0399 27.5 36.5999C27.62 36.8599 27.72 37.1299 27.8 37.4099C27.81 37.4499 27.82 37.4799 27.83 37.5199C27.97 38.0099 28.06 38.5199 28.08 39.0499C28.1 39.1999 28.11 39.3599 28.11 39.5199Z" fill="#FFE082"></path>
    <path d="M26.06 39.52C26.06 39.93 26.01 40.32 25.9 40.69C25.8 41.09 25.65 41.47 25.46 41.83C25.43 41.89 25.36 42 25.36 42H16.48C16.47 41.99 16.46 41.97 16.46 41.96C16.34 41.77 16.24 41.58 16.16 41.37C15.96 40.91 15.84 40.41 15.8 39.89C15.78 39.77 15.78 39.64 15.78 39.52C15.78 39.46 15.78 39.39 15.79 39.33C15.8 38.89 15.86 38.47 15.98 38.08C16.08 37.72 16.21 37.39 16.38 37.07C16.38 37.07 16.39 37.06 16.39 37.05C16.51 36.84 16.64 36.63 16.79 36.43C17.28 35.77 17.93 35.23 18.68 34.88C18.69 34.88 18.69 34.88 18.69 34.88C18.93 34.76 19.18 34.66 19.44 34.59C19.44 34.59 19.44 34.59 19.45 34.59C19.91 34.45 20.41 34.38 20.92 34.38C21.51 34.38 22.08 34.47 22.6 34.66C22.79 34.71 22.97 34.79 23.15 34.88C23.15 34.88 23.15 34.88 23.16 34.88C24.02 35.29 24.75 35.93 25.25 36.73C25.35 36.88 25.44 37.04 25.52 37.21C25.56 37.28 25.6 37.36 25.63 37.43C25.86 37.95 26 38.52 26.04 39.12C26.05 39.17 26.05 39.22 26.05 39.28C26.06 39.36 26.06 39.44 26.06 39.52Z" fill="#FFECB3"></path>
    <path d="M30 11H18C14.1 11 11 14.1 11 18V30C11 33.9 14.1 37 18 37H30C33.9 37 37 33.9 37 30V18C37 14.1 33.9 11 30 11Z" stroke="white" stroke-width="2" stroke-miterlimit="10" stroke-linecap="round" stroke-linejoin="round"></path>
    <path d="M31 17C31.5523 17 32 16.5523 32 16C32 15.4477 31.5523 15 31 15C30.4477 15 30 15.4477 30 16C30 16.5523 30.4477 17 31 17Z" fill="white"></path>
    <path d="M24 30C27.3137 30 30 27.3137 30 24C30 20.6863 27.3137 18 24 18C20.6863 18 18 20.6863 18 24C18 27.3137 20.6863 30 24 30Z" stroke="white" stroke-width="2" stroke-miterlimit="10" stroke-linecap="round" stroke-linejoin="round"></path>
  </symbol>
  <symbol fill="none" xmlns="http://www.w3.org/2000/svg" viewBox="0 0 48 48" id="social-youtube">
    <g clip-path="url(#clip0_51:409)">
      <path d="M38.2 35.9C37.8 38 36.1 39.6 34 39.9C30.7 40.4 25.2 41 19 41C12.9 41 7.4 40.4 4 39.9C1.9 39.6 0.2 38 -0.2 35.9C-0.6 33.6 -1 30.2 -1 26C-1 21.8 -0.6 18.4 -0.2 16.1C0.2 14 1.9 12.4 4 12.1C7.3 11.6 12.8 11 19 11C25.2 11 30.6 11.6 34 12.1C36.1 12.4 37.8 14 38.2 16.1C38.6 18.4 39.1 21.8 39.1 26C39 30.2 38.6 33.6 38.2 35.9Z" fill="#FF3D00"></path>
      <path d="M15 33V19L27 26L15 33Z" fill="white"></path>
    </g>
    <defs>
      <clipPath id="clip0_51:409">
        <rect width="48" height="48" fill="white"></rect>
      </clipPath>
    </defs>
  </symbol>
  <symbol fill="none" xmlns="http://www.w3.org/2000/svg" viewBox="0 0 108 24" id="youtube">
    <g clip-path="url(#clip0_42:811)">
      <path d="M17.9812 23.9786L10.9154 23.8483C8.62753 23.803 6.33409 23.8937 4.09123 23.4235C0.679166 22.7211 0.437455 19.2772 0.184501 16.3883C-0.164013 12.327 -0.0291044 8.19197 0.628575 4.16459C0.999574 1.9045 2.46108 0.556375 4.7208 0.409101C12.3488 -0.123351 20.0273 -0.0610428 27.6384 0.18819C28.4422 0.210848 29.2517 0.335464 30.0443 0.477074C33.9566 1.16813 34.0522 5.07089 34.3051 8.35624C34.5581 11.6756 34.4513 15.0119 33.9679 18.3086C33.58 21.0388 32.838 23.3272 29.707 23.5481C25.7834 23.837 21.9498 24.0692 18.0149 23.9956C18.0149 23.9786 17.9924 23.9786 17.9812 23.9786ZM13.8271 17.0681C16.7839 15.3574 19.6844 13.6751 22.6243 11.9758C19.6619 10.2651 16.767 8.58281 13.8271 6.8835V17.0681Z" fill="#FF0000"></path>
      <path d="M91.1647 20.8734C91.0297 21.4285 90.9117 21.8646 90.7937 22.3291H88.028V0.832764H91.2546V8.7629C91.4232 8.54766 91.5075 8.45703 91.5806 8.36073C92.1315 7.59604 92.8454 7.09757 93.7673 6.90498C95.2344 6.6161 96.4879 7.26751 96.932 8.68927C97.2187 9.57291 97.4042 10.5189 97.4267 11.4422C97.4716 13.8155 97.4379 16.1832 97.3536 18.5566C97.3199 19.2817 97.1006 20.0237 96.8252 20.7034C95.9202 22.9465 92.9634 23.2864 91.4963 21.3435C91.4064 21.2245 91.322 21.0943 91.1647 20.8734ZM91.322 14.9597V18.8908C91.322 19.5309 91.6593 19.9217 92.2945 20.069C92.9185 20.2163 93.4244 19.9727 93.6773 19.3893C93.7841 19.1457 93.8909 18.8908 93.8966 18.6359C93.9584 16.2342 94.0146 13.8325 94.0315 11.4252C94.0315 10.9777 93.9247 10.5132 93.7898 10.077C93.5368 9.28969 92.8398 9.05745 92.154 9.51627C91.6368 9.86746 91.322 10.3659 91.322 11.0287V14.9597ZM82.553 7.21086H85.9313V22.3404H83.295C83.1994 21.7683 83.1039 21.1792 82.9914 20.4882C82.8116 20.7544 82.7048 20.9243 82.5923 21.0943C81.7154 22.3688 80.4731 22.8049 79.006 22.5727C77.7525 22.3688 76.9992 21.3945 76.8306 19.7971C76.78 19.3213 76.7575 18.8398 76.7575 18.364C76.7463 14.8238 76.7575 11.2722 76.7575 7.73199V7.19953H80.1752V7.81695C80.1752 11.2382 80.164 14.6539 80.1865 18.0752C80.1865 18.5623 80.237 19.0664 80.3214 19.5536C80.4169 20.052 80.7767 20.2333 81.2601 20.1993C82.0415 20.137 82.5811 19.5536 82.5811 18.7719V7.87926C82.553 7.65835 82.553 7.45443 82.553 7.21086ZM59.2925 7.19953H62.6877V7.83961C62.6877 11.2439 62.6764 14.6425 62.6989 18.0355C62.6989 18.5226 62.7439 19.0268 62.8451 19.5026C62.9744 20.0633 63.3004 20.2446 63.8569 20.171C64.627 20.0634 65.0935 19.5252 65.0992 18.7379V7.90192V7.22219H68.4775V22.3404H65.8524C65.7568 21.7797 65.6613 21.2019 65.5376 20.4712C65.369 20.7261 65.2734 20.8734 65.1779 21.0263C64.301 22.3234 63.0699 22.7992 61.5691 22.567C60.3661 22.3857 59.6297 21.4908 59.4049 20.0237C59.3431 19.5649 59.2981 19.1117 59.2981 18.6529C59.2868 14.9767 59.2868 11.2836 59.2868 7.60737L59.2925 7.19953ZM57.5499 15.2769C57.5387 15.7867 57.5049 16.2965 57.4768 16.8063C57.3475 18.3357 57.2857 20.5052 56.0603 21.6211C55.2789 22.3234 54.2896 22.5783 53.2665 22.6123C52.8112 22.6237 52.3503 22.6237 51.895 22.5613C49.7421 22.2328 48.7415 21.2755 48.3817 18.8908C47.9714 16.1379 47.9377 13.3397 48.4267 10.5868C48.9326 7.73765 50.6752 6.72939 53.3846 6.91631C55.9141 7.09757 57.044 8.76857 57.3419 11.1476C57.5049 12.5127 57.5836 13.8948 57.5499 15.2769ZM54.1097 14.7558C54.1097 13.7872 54.1322 12.8129 54.0985 11.8443C54.076 11.2836 54.0029 10.7171 53.8849 10.162C53.75 9.52193 53.3452 9.21605 52.8393 9.22738C52.3447 9.23871 51.9962 9.54459 51.8163 10.1393C51.7544 10.3603 51.687 10.5868 51.687 10.8077C51.687 12.3258 51.6757 13.8495 51.6645 15.3676C51.6533 16.7837 51.4734 18.2677 51.9175 19.6215C52.0524 20.035 52.4009 20.2616 52.8562 20.2616C53.3003 20.2616 53.5926 20.0407 53.7556 19.6442C53.8849 19.3383 53.9973 19.0041 53.9973 18.6756C54.0366 17.3728 54.1097 16.0643 54.1097 14.7558ZM43.4238 11.9066C43.7218 10.4396 44.0028 9.00647 44.312 7.56772C44.6998 5.73812 45.1327 3.90852 45.5149 2.07326C45.6105 1.62578 45.7904 1.51815 46.2119 1.52948C47.117 1.56347 48.0388 1.54081 49.0057 1.54081C48.6909 2.70768 48.3817 3.81789 48.0782 4.91112C47.117 8.34374 46.1557 11.7877 45.2057 15.2316C45.1327 15.4979 45.0989 15.7867 45.0989 16.07C45.0877 17.9505 45.0989 19.8254 45.0989 21.706V22.3178H41.7993C41.7881 22.1478 41.7656 21.9779 41.7656 21.808C41.7656 20.7431 41.6813 19.6725 41.7768 18.6189C42.0185 16.087 41.2203 13.7589 40.5739 11.4025C39.7195 8.28709 38.8538 5.16035 37.9994 2.04494C37.9544 1.89767 37.9375 1.73907 37.8926 1.55781H41.2597C41.9679 4.99609 42.6818 8.43437 43.4238 11.9066ZM107.983 15.8547H102.295C102.356 17.0046 102.379 18.0978 102.497 19.1797C102.581 19.9331 102.992 20.2559 103.638 20.2616C104.313 20.2729 104.706 19.9331 104.864 19.1854C104.914 18.9418 104.948 18.6982 104.97 18.449C104.993 18.2281 105.004 17.9902 105.021 17.673C105.982 17.724 106.921 17.7806 107.848 17.8203C108.388 19.4346 107.416 21.5078 105.78 22.1478C104.493 22.6576 103.172 22.6576 101.856 22.2668C100.884 21.9779 100.159 21.3548 99.8325 20.3975C99.529 19.5026 99.2423 18.568 99.1805 17.6333C99.0118 15.3279 98.95 12.9999 99.2985 10.6888C99.3604 10.3036 99.4672 9.93543 99.5852 9.56158C100.057 8.02087 101.086 7.07492 102.677 6.91631C103.543 6.83135 104.436 6.86533 105.291 7.01261C106.674 7.25618 107.41 8.25877 107.73 9.57291C107.876 10.1903 107.983 10.8247 108.006 11.4535C108.011 12.8979 107.983 14.331 107.983 15.8547ZM104.751 13.8665C104.751 12.728 104.762 11.6574 104.74 10.5812C104.74 10.3263 104.644 10.06 104.549 9.81648C104.358 9.34067 103.958 9.21039 103.481 9.21039C103.003 9.21039 102.699 9.45396 102.581 9.89012C102.222 11.1986 102.34 12.5354 102.351 13.8778C103.211 13.8665 103.992 13.8665 104.751 13.8665Z" fill="#282828"></path>
      <path d="M71.0857 4.31642H67.7411V1.58618H77.7244V4.29942H74.4022V22.3178H71.0914L71.0857 4.31642Z" fill="#282828"></path>
    </g>
    <defs>
      <clipPath id="clip0_42:811">
        <rect width="108" height="24" fill="white"></rect>
      </clipPath>
    </defs>
  </symbol>
</svg>